<svg width="10" height="18" viewBox="0 0 10 18" fill="none" xmlns="http://www.w3.org/2000/svg">
<path d="M9.70994 16.29C9.80367 16.383 9.87806 16.4936 9.92883 16.6154C9.9796 16.7373 10.0057 16.868 10.0057 17C10.0057 17.132 9.9796 17.2627 9.92883 17.3846C9.87806 17.5064 9.80367 17.617 9.70994 17.71C9.61698 17.8037 9.50638 17.8781 9.38452 17.9289C9.26266 17.9797 9.13195 18.0058 8.99994 18.0058C8.86793 18.0058 8.73722 17.9797 8.61536 17.9289C8.4935 17.8781 8.3829 17.8037 8.28994 17.71L0.289939 9.71C0.196211 9.61704 0.121816 9.50644 0.0710478 9.38458C0.0202791 9.26272 -0.00585938 9.13201 -0.00585938 9C-0.00585938 8.86799 0.0202791 8.73728 0.0710478 8.61543C0.121816 8.49357 0.196211 8.38297 0.289939 8.29L8.28994 0.290002C8.47824 0.101699 8.73364 -0.00408936 8.99994 -0.00408936C9.1318 -0.00408936 9.26237 0.0218823 9.38419 0.0723426C9.50601 0.122803 9.6167 0.196764 9.70994 0.290002C9.80318 0.383241 9.87714 0.493931 9.9276 0.615753C9.97806 0.737575 10.004 0.868143 10.004 1C10.004 1.13186 9.97806 1.26243 9.9276 1.38425C9.87714 1.50607 9.80318 1.61676 9.70994 1.71L2.40994 9L9.70994 16.29Z" fill="white"/>
</svg>
